<?xml version="1.0" encoding="utf-8"?>
<!-- Generator: Adobe Illustrator 18.0.0, SVG Export Plug-In . SVG Version: 6.00 Build 0)  -->
<!DOCTYPE svg PUBLIC "-//W3C//DTD SVG 1.1//EN" "http://www.w3.org/Graphics/SVG/1.1/DTD/svg11.dtd">
<svg version="1.1" xmlns="http://www.w3.org/2000/svg" xmlns:xlink="http://www.w3.org/1999/xlink" x="0px" y="0px"
	 viewBox="-180.6 743.8 595.4 207.9" enable-background="new -180.6 743.8 595.4 207.9" xml:space="preserve">
<g id="Layer_1">
	
		<linearGradient id="SVGID_1_" gradientUnits="userSpaceOnUse" x1="-180.7028" y1="445.5247" x2="-151.9858" y2="445.5247" gradientTransform="matrix(5.2259 0 0 -5.2259 764.8593 3152.3381)">
		<stop  offset="0" style="stop-color:#C94071"/>
		<stop  offset="0.2016" style="stop-color:#CA4474"/>
		<stop  offset="0.4014" style="stop-color:#CB507E"/>
		<stop  offset="0.6005" style="stop-color:#CE648F"/>
		<stop  offset="0.7993" style="stop-color:#D280A7"/>
		<stop  offset="0.9962" style="stop-color:#D7A3C5"/>
		<stop  offset="1" style="stop-color:#D7A4C6"/>
	</linearGradient>
	<path fill="url(#SVGID_1_)" d="M-43.3,760.6c-12.2-8.4-29.6-16.8-51-16.8c-19.8,0-38.7,6.7-53.3,18.3
		c-10.5,8.4-18.9,18.9-24.5,31.4c-3.6,7.8-6.7,16.7-7.3,25.6c0,0.5-0.5,7.3-0.5,10c0,1.1-0.1,3.5,0,4.7c0.2,3.6,1.1,7.8,1.6,12
		c2.6,13.6,9.4,27.2,20.9,40.3c7.8,8.4,16.7,14.1,26.7,18.3c-12-15.6-17.2-31.9-18.3-47c0-0.5,0.5-14.1,0.5-14.7
		c1.1-9.4,3.6-17.8,7.3-25.6c5.8-12.5,12-23.3,26.7-32.9c16.5-10.7,31.9-16.7,50.7-16.7c13.1,0,24.1,2.7,34.6,6.9
		C-29.4,774.1-38.9,763.6-43.3,760.6z"/>
	
		<linearGradient id="SVGID_2_" gradientUnits="userSpaceOnUse" x1="-141.599" y1="425.2534" x2="-182.152" y2="433.1361" gradientTransform="matrix(5.2259 0 0 -5.2259 764.8593 3152.3381)">
		<stop  offset="0" style="stop-color:#FFF263"/>
		<stop  offset="0.2513" style="stop-color:#FFF05C"/>
		<stop  offset="0.6174" style="stop-color:#FFE949"/>
		<stop  offset="0.9879" style="stop-color:#FFE02E"/>
	</linearGradient>
	<path fill="url(#SVGID_2_)" d="M9.2,937.1c-5.8-8.4-7.1-12-12.5-23.6c-67.4,0-74.2,0-74.2,0s-27.2,1.6-52.8-9.4
		c-10-4.2-19.4-10-26.7-18.3c-11.5-13.6-17.8-27.2-20.9-40.3c-1.1,3.6-1.8,8.6-2.1,11.5c-0.3,3.6-0.6,10.9-0.5,14.7
		c0.3,16.7,7.3,35,22.5,52.3c27.2,30.3,79.5,27.7,79.5,27.7s8.4,0,99.8,0C16,946.5,12.3,941.8,9.2,937.1z"/>
	
		<linearGradient id="SVGID_3_" gradientUnits="userSpaceOnUse" x1="-136.222" y1="423.905" x2="-161.9027" y2="457.9846" gradientTransform="matrix(5.2259 0 0 -5.2259 764.8593 3152.3381)">
		<stop  offset="0" style="stop-color:#6AADD8"/>
		<stop  offset="0.2197" style="stop-color:#5FA5D4;stop-opacity:0.7803"/>
		<stop  offset="0.6067" style="stop-color:#4191C8;stop-opacity:0.3933"/>
		<stop  offset="1" style="stop-color:#1D78B9;stop-opacity:0"/>
	</linearGradient>
	<path fill="url(#SVGID_3_)" d="M27.5,896.9c-8.8-22.6-3.6-40.8-9.4-63.2c-2.1-8.9-5.2-18.6-12-28.7c-3.3-4.9-9.5-12-14.7-16.2
		c-6.6-5.4-13.6-10-21.4-13.6c-10.5-4.7-22-7.3-34-7.3c-19.4,0-36.6,6.3-50.7,16.7c6.3-1.6,12.5-2.1,18.9-2.1
		c21.4,0,41,7.5,55.7,20.6c2.1,2.1,8.2,7.7,10.6,10.6c9.5,12,14,26.2,16.2,34.6c5.2,22.5,1,39.8,9.1,62.4
		c3.5,9.7,7.8,17.6,13.6,25.9c12,0,26.1,0,43.4,0C40,922.4,31.8,907.8,27.5,896.9z"/>
	
		<linearGradient id="SVGID_4_" gradientUnits="userSpaceOnUse" x1="-144.603" y1="427.045" x2="-171.3513" y2="427.045" gradientTransform="matrix(5.2259 0 0 -5.2259 764.8593 3152.3381)">
		<stop  offset="0" style="stop-color:#8EBE56"/>
		<stop  offset="0.2325" style="stop-color:#A2C64F"/>
		<stop  offset="0.4788" style="stop-color:#B3CD49"/>
		<stop  offset="0.8147" style="stop-color:#AECB4A;stop-opacity:0.3556"/>
		<stop  offset="1" style="stop-color:#A8C94C;stop-opacity:0"/>
	</linearGradient>
	<path fill="url(#SVGID_4_)" d="M-77.6,913.6c0,0-27.2,1.6-52.8-9.4c1.6,1.6,2.6,3.6,4.2,5.2c27.2,30.3,58.4,27.3,79.5,27.7
		c14.1,0.2,5.8-0.5,55.9-0.5c-5.9-9-8.7-14.6-12.5-23L-77.6,913.6L-77.6,913.6z"/>
	
		<linearGradient id="SVGID_5_" gradientUnits="userSpaceOnUse" x1="-180.4821" y1="441.7024" x2="-168.2843" y2="441.7024" gradientTransform="matrix(5.2259 0 0 -5.2259 764.8593 3152.3381)">
		<stop  offset="0" style="stop-color:#D58037"/>
		<stop  offset="1" style="stop-color:#E6AA49"/>
	</linearGradient>
	<path fill="url(#SVGID_5_)" d="M-130.9,904.1c-12-15.6-17.8-31.8-18.3-47c0-0.5,0-3.6,0-4.7c0-3.1,0.3-7.4,0.5-10
		c0.6-9.4,3.6-17.8,7.3-25.6c5.8-12.5,16-24,26.7-32.9c-12.5,2.6-24.5,8.4-34,16.2c-10.5,8.4-18.9,18.9-24.5,31.4
		c-2.1,4.2-3.6,8.9-4.7,14.1c2.6,13.6,9.4,27.2,20.9,40.3C-150.2,894.3-140.8,900-130.9,904.1z"/>
	
		<linearGradient id="SVGID_6_" gradientUnits="userSpaceOnUse" x1="-141.2583" y1="429.126" x2="-162.6179" y2="457.4713" gradientTransform="matrix(5.2259 0 0 -5.2259 764.8593 3152.3381)">
		<stop  offset="0" style="stop-color:#7A6BAB"/>
		<stop  offset="0.3822" style="stop-color:#7B65A7"/>
		<stop  offset="0.8897" style="stop-color:#7C549D"/>
		<stop  offset="0.897" style="stop-color:#7C549D"/>
		<stop  offset="1" style="stop-color:#764D99"/>
	</linearGradient>
	<path opacity="0.85" fill="url(#SVGID_6_)" enable-background="new    " d="M-114.6,784c6.3-1.6,12.5-2.1,18.9-2.1
		c21.4,0,40.7,7.9,55.4,20.9c6.2,5.6,11.6,11.7,14.7,16.2c4.4,6.4,10,20.3,12,28.7c5.2,22.5,1.2,41.7,10.5,65.9
		c7.8,0,15.6-1.1,25.1-1.1C9.3,897.7,0,883.8-3.2,872.5c-4.4-15.4-3.7-41.1-9.4-63.6c-2.1-8.9-5.2-18.6-12-28.7
		c-1.5-2.1-4.2-6.1-5.2-6.7c-10.5-4.7-22-7.3-34-7.3C-82.8,767.3-100.6,773.6-114.6,784z"/>
</g>
<g id="Layer_3">
	<g>
		<path fill="#231F20" d="M-40.9,857.7h-6.3v-34.5c0-2.1-1.6-4.2-3.6-4.7c-0.5,0-1.1-0.5-1.6-0.5c-1.1,0-2.6,0.5-4.2,2.6l-24.5,39.7
			c-1.1,1.6-1.1,3.1-0.5,5.2c1.1,1.6,2.6,2.6,4.2,2.6h19.8V879c0,2.6,2.1,5.2,4.7,5.2s5.2-2.1,5.2-5.2v-10.8h6.3
			c2.6,0,5.2-2.1,5.2-4.7C-35.8,859.8-38.4,857.7-40.9,857.7z M-57.2,840.4v17.2h-10.9L-57.2,840.4z"/>
		<path fill="#231F20" d="M-86.5,873.8h-19.4c19.4-21.4,21.4-27.7,21.4-37.6c-0.5-9.4-5.2-16.2-13.6-18.3c-1.6-0.5-3.6-1.1-5.8-1.1
			h-0.5c-1.1,0-2.1,0-3.1,0.5c-6.7,1.1-12.5,5.2-15.2,11.5c-1.1,2.6,0,5.2,2.6,6.7c1.1,0.5,2.1,0.5,2.6,0.5c1.6-0.5,3.1-1.6,3.6-2.6
			c1.6-3.1,4.2-5.2,7.8-5.8c1.1,0,1.1,0,2.1,0s2.1,0,2.6,0.5c4.2,1.1,6.3,4.2,6.7,8.9c0,7.8-2.6,13.6-26.7,39.2
			c-1.6,1.6-1.6,3.6-1.1,5.2c1.1,2.1,2.6,3.1,4.7,3.1h30.8c2.6,0,4.7-2.1,4.7-4.7S-83.8,873.8-86.5,873.8z"/>
	</g>
</g>
<g id="Layer_2">
	<path fill="#231F20" d="M74.5,876.5c-0.5,1.6-1.6,2.6-3.6,2.6c-2.1,0-3.6-1.1-3.6-3.1c0-1.1,1.1-3.1,1.1-3.6L87,822.1
		c1.1-2.6,2.6-4.7,5.2-4.7c3.1,0,4.2,2.1,5.2,4.7l18.9,50.1c0.5,1.1,1.1,2.6,1.1,3.6c0,2.1-1.6,3.1-3.6,3.1c-2.1,0-3.1-1.1-3.6-2.6
		l-3.6-10.9H78.2L74.5,876.5z M92.8,826.3L92.8,826.3l-12,32.9h23.6L92.8,826.3z"/>
	<path fill="#231F20" d="M144.6,878.5h-17.2c-2.1,0-3.6-1.6-3.6-4.2v-37.1c0-2.6,1.6-4.2,3.6-4.2h16.2c7.8,0,12.5,5.8,12.5,10.9
		c0,4.7-2.6,8.9-6.3,10l0,0c5.2,0.5,10,5.2,10,10.9C159.1,872.3,154,878.5,144.6,878.5z M142.4,839.3h-10.9v12h10.9
		c3.6,0,6.3-2.6,6.3-6.3C148.2,842,146.6,839.3,142.4,839.3z M144,857.7H131v14.7h12.5c4.7,0,7.8-3.1,7.8-7.3
		C151.8,860.8,148.7,857.7,144,857.7z"/>
	<path fill="#231F20" d="M193.6,849.8c0-6.3-3.6-10.5-10-10.5c-6.3,0-9.4,4.2-9.4,10.5v25.6c0,2.6-1.6,4.2-3.6,4.2s-3.6-1.6-3.6-4.2
		v-38.1c0-2.6,1.6-4.2,3.6-4.2c2.1,0,3.6,1.6,3.6,4.2v1.6l0,0c1.6-2.1,4.7-5.2,11.5-5.2c4.2,0,8.9,2.1,12.5,7.8
		c3.1-4.7,7.3-7.8,14.1-7.8c6.7,0,15.6,4.2,15.6,17.2V876c0,2.6-1.6,4.2-3.6,4.2c-2.1,0-3.6-1.6-3.6-4.2v-25.6
		c0-6.3-3.6-10.5-10-10.5c-6.3,0-9.4,4.2-9.4,10.5V876c0,2.6-1.6,4.2-3.6,4.2c-2.1,0-3.6-1.6-3.6-4.2L193.6,849.8L193.6,849.8z"/>
	<path fill="#231F20" d="M255.8,832.6c12.5,0,19.8,10.9,19.8,23c0,12-7.3,23-19.8,23s-19.8-10.9-19.8-23
		C236,844,243.3,832.6,255.8,832.6z M255.8,872.3c9.4,0,12.5-8.9,12.5-16.7c0-7.8-3.1-16.7-12.5-16.7s-12.5,8.9-12.5,16.7
		C243.3,863.4,246.9,872.3,255.8,872.3z"/>
	<path fill="#231F20" d="M284.1,836.8c0-2.6,1.6-4.2,3.6-4.2c2.1,0,3.6,1.6,3.6,4.2v2.1l0,0c2.1-4.2,6.3-6.3,12-6.3
		c12.5,0,19.4,10.9,19.4,23c0,12-7.3,23-19.4,23c-6.3,0-10-3.1-12-6.3l0,0v19.8c0,2.6-1.6,4.2-3.6,4.2c-2.1,0-3.6-1.6-3.6-4.2V836.8
		L284.1,836.8z M303.4,872.3c9.4,0,12.5-8.9,12.5-16.7c0-7.8-3.1-16.7-12.5-16.7s-12.5,8.9-12.5,16.7
		C290.9,863.4,294,872.3,303.4,872.3z"/>
	<path fill="#231F20" d="M364.5,872.3c1.6,0,3.1,1.6,3.1,3.1c0,1.6-1.6,3.1-3.1,3.1h-29.2c-3.1,0-4.2-1.6-4.2-3.1
		c0-1.1,0.5-1.6,1.6-3.1l20.9-27.7c2.6-3.1,4.2-7.3,4.2-10.5c0-5.2-4.2-9.4-9.4-9.4c-7.3,0-10.9,6.3-10.9,13.6
		c0,2.6-1.6,3.1-3.1,3.1c-2.6,0-3.6-1.6-3.6-4.7c0-10,6.7-18.9,19.4-18.9c10,0,16.2,7.3,16.2,15.2c0,3.6-0.5,7.3-4.2,12.5
		l-20.3,27.2L364.5,872.3L364.5,872.3z"/>
	<path fill="#231F20" d="M376,862.9c-2.6,0-3.1-1.1-3.1-2.6c0-1.1,1.1-2.6,2.1-4.2l21.4-35c1.6-2.6,3.1-3.1,5.8-3.1
		c3.1,0,5.8,1.6,5.8,6.3v32.9h3.6c1.6,0,3.1,1.6,3.1,3.1s-1.6,3.1-3.1,3.1H408v12c0,2.6-1.6,4.2-3.6,4.2c-2.1,0-3.6-1.6-3.6-4.2v-12
		h-24.5v-0.5H376z M400.1,856.6v-30.8l0,0l-17.8,30.8H400.1z"/>
</g>
</svg>
